<mxfile host="app.diagrams.net" agent="Mozilla/5.0 (Windows NT 10.0; Win64; x64) AppleWebKit/537.36 (KHTML, like Gecko) Chrome/134.0.0.0 Safari/537.36" version="26.1.3">
  <diagram name="Página-1" id="0F7bxUu_byMEYny7Hj41">
    <mxGraphModel dx="989" dy="532" grid="1" gridSize="10" guides="1" tooltips="1" connect="1" arrows="1" fold="1" page="1" pageScale="1" pageWidth="827" pageHeight="1169" math="0" shadow="0">
      <root>
        <mxCell id="0" />
        <mxCell id="1" parent="0" />
        <mxCell id="mAHwyWfsaXUX9tezS1Q_-50" style="edgeStyle=orthogonalEdgeStyle;rounded=0;orthogonalLoop=1;jettySize=auto;html=1;exitX=0.5;exitY=1;exitDx=0;exitDy=0;entryX=0.494;entryY=0.038;entryDx=0;entryDy=0;entryPerimeter=0;" edge="1" parent="1" source="mAHwyWfsaXUX9tezS1Q_-49" target="mAHwyWfsaXUX9tezS1Q_-48">
          <mxGeometry relative="1" as="geometry" />
        </mxCell>
        <mxCell id="mAHwyWfsaXUX9tezS1Q_-36" value="Nível 3 - Diagrana de Componente" style="rounded=0;whiteSpace=wrap;html=1;fillColor=none;labelPosition=center;verticalLabelPosition=top;align=center;verticalAlign=bottom;" vertex="1" parent="1">
          <mxGeometry x="73" y="370" width="247" height="320" as="geometry" />
        </mxCell>
        <mxCell id="mAHwyWfsaXUX9tezS1Q_-49" value="UsuarioController" style="image;aspect=fixed;perimeter=ellipsePerimeter;html=1;align=center;shadow=0;dashed=0;spacingTop=3;image=img/lib/active_directory/domain_controller.svg;" vertex="1" parent="1">
          <mxGeometry x="176" y="380" width="35" height="50" as="geometry" />
        </mxCell>
        <mxCell id="mAHwyWfsaXUX9tezS1Q_-10" value="Nível 1 - Diagrana de Contexto" style="rounded=0;whiteSpace=wrap;html=1;fillColor=none;labelPosition=center;verticalLabelPosition=top;align=center;verticalAlign=bottom;" vertex="1" parent="1">
          <mxGeometry x="73" y="20" width="247" height="320" as="geometry" />
        </mxCell>
        <mxCell id="mAHwyWfsaXUX9tezS1Q_-14" style="edgeStyle=orthogonalEdgeStyle;rounded=0;orthogonalLoop=1;jettySize=auto;html=1;exitX=1;exitY=0.5;exitDx=0;exitDy=0;exitPerimeter=0;" edge="1" parent="1" source="mAHwyWfsaXUX9tezS1Q_-2" target="mAHwyWfsaXUX9tezS1Q_-12">
          <mxGeometry relative="1" as="geometry" />
        </mxCell>
        <mxCell id="mAHwyWfsaXUX9tezS1Q_-2" value="Web Fronted - Razor" style="html=1;whiteSpace=wrap;strokeColor=none;fillColor=#0079D6;labelPosition=center;verticalLabelPosition=middle;verticalAlign=top;align=center;fontSize=12;outlineConnect=0;spacingTop=-6;fontColor=#FFFFFF;sketch=0;shape=mxgraph.sitemap.form;" vertex="1" parent="1">
          <mxGeometry x="83" y="160" width="120" height="70" as="geometry" />
        </mxCell>
        <mxCell id="mAHwyWfsaXUX9tezS1Q_-3" style="edgeStyle=orthogonalEdgeStyle;rounded=0;orthogonalLoop=1;jettySize=auto;html=1;exitX=0.5;exitY=1;exitDx=0;exitDy=0;exitPerimeter=0;entryX=0.5;entryY=0;entryDx=0;entryDy=0;entryPerimeter=0;" edge="1" parent="1" source="mAHwyWfsaXUX9tezS1Q_-1" target="mAHwyWfsaXUX9tezS1Q_-2">
          <mxGeometry relative="1" as="geometry" />
        </mxCell>
        <mxCell id="mAHwyWfsaXUX9tezS1Q_-1" value="Usuário Final" style="outlineConnect=0;dashed=0;verticalLabelPosition=bottom;verticalAlign=top;align=center;html=1;shape=mxgraph.aws3.users;fillColor=#D2D3D3;gradientColor=none;" vertex="1" parent="1">
          <mxGeometry x="110" y="40" width="66" height="63" as="geometry" />
        </mxCell>
        <mxCell id="mAHwyWfsaXUX9tezS1Q_-4" value="" style="verticalLabelPosition=bottom;verticalAlign=top;html=1;shape=mxgraph.basic.frame;dx=10;whiteSpace=wrap;" vertex="1" parent="1">
          <mxGeometry x="83" y="277" width="100" height="60" as="geometry" />
        </mxCell>
        <mxCell id="mAHwyWfsaXUX9tezS1Q_-5" value="" style="verticalLabelPosition=bottom;verticalAlign=top;html=1;shape=mxgraph.basic.frame;dx=10;whiteSpace=wrap;" vertex="1" parent="1">
          <mxGeometry x="203" y="277" width="100" height="60" as="geometry" />
        </mxCell>
        <mxCell id="mAHwyWfsaXUX9tezS1Q_-8" value="ViaCEP API" style="text;html=1;align=center;verticalAlign=middle;resizable=0;points=[];autosize=1;strokeColor=none;fillColor=none;" vertex="1" parent="1">
          <mxGeometry x="88" y="292" width="90" height="30" as="geometry" />
        </mxCell>
        <mxCell id="mAHwyWfsaXUX9tezS1Q_-9" value="Fake DB" style="text;html=1;align=center;verticalAlign=middle;resizable=0;points=[];autosize=1;strokeColor=none;fillColor=none;" vertex="1" parent="1">
          <mxGeometry x="218" y="292" width="70" height="30" as="geometry" />
        </mxCell>
        <mxCell id="mAHwyWfsaXUX9tezS1Q_-15" style="edgeStyle=orthogonalEdgeStyle;rounded=0;orthogonalLoop=1;jettySize=auto;html=1;exitX=0.5;exitY=1;exitDx=0;exitDy=0;exitPerimeter=0;" edge="1" parent="1" source="mAHwyWfsaXUX9tezS1Q_-12" target="mAHwyWfsaXUX9tezS1Q_-4">
          <mxGeometry relative="1" as="geometry">
            <Array as="points">
              <mxPoint x="260" y="257" />
              <mxPoint x="133" y="257" />
            </Array>
          </mxGeometry>
        </mxCell>
        <mxCell id="mAHwyWfsaXUX9tezS1Q_-12" value="Api Omniconnect" style="aspect=fixed;sketch=0;html=1;dashed=0;whitespace=wrap;verticalLabelPosition=middle;verticalAlign=middle;fillColor=#2875E2;strokeColor=#ffffff;points=[[0.005,0.63,0],[0.1,0.2,0],[0.9,0.2,0],[0.5,0,0],[0.995,0.63,0],[0.72,0.99,0],[0.5,1,0],[0.28,0.99,0]];shape=mxgraph.kubernetes.icon2;prIcon=api;labelPosition=left;align=right;" vertex="1" parent="1">
          <mxGeometry x="245" y="234" width="29.17" height="28" as="geometry" />
        </mxCell>
        <mxCell id="mAHwyWfsaXUX9tezS1Q_-16" style="edgeStyle=orthogonalEdgeStyle;rounded=0;orthogonalLoop=1;jettySize=auto;html=1;exitX=0.995;exitY=0.63;exitDx=0;exitDy=0;exitPerimeter=0;entryX=0;entryY=0;entryDx=75;entryDy=0;entryPerimeter=0;" edge="1" parent="1" source="mAHwyWfsaXUX9tezS1Q_-12" target="mAHwyWfsaXUX9tezS1Q_-5">
          <mxGeometry relative="1" as="geometry" />
        </mxCell>
        <mxCell id="mAHwyWfsaXUX9tezS1Q_-17" value="Nível 2 - Diagrana de Contêiner" style="rounded=0;whiteSpace=wrap;html=1;fillColor=none;labelPosition=center;verticalLabelPosition=top;align=center;verticalAlign=bottom;" vertex="1" parent="1">
          <mxGeometry x="414" y="17" width="247" height="320" as="geometry" />
        </mxCell>
        <mxCell id="mAHwyWfsaXUX9tezS1Q_-18" style="edgeStyle=orthogonalEdgeStyle;rounded=0;orthogonalLoop=1;jettySize=auto;html=1;exitX=0.5;exitY=1;exitDx=0;exitDy=0;exitPerimeter=0;" edge="1" parent="1" source="mAHwyWfsaXUX9tezS1Q_-19" target="mAHwyWfsaXUX9tezS1Q_-29">
          <mxGeometry relative="1" as="geometry">
            <mxPoint x="601" y="231" as="targetPoint" />
          </mxGeometry>
        </mxCell>
        <mxCell id="mAHwyWfsaXUX9tezS1Q_-19" value="Web Fronted - Razor" style="html=1;whiteSpace=wrap;strokeColor=none;fillColor=#0079D6;labelPosition=center;verticalLabelPosition=middle;verticalAlign=top;align=center;fontSize=12;outlineConnect=0;spacingTop=-6;fontColor=#FFFFFF;sketch=0;shape=mxgraph.sitemap.form;" vertex="1" parent="1">
          <mxGeometry x="424" y="40" width="120" height="70" as="geometry" />
        </mxCell>
        <mxCell id="mAHwyWfsaXUX9tezS1Q_-29" value="ASP.NET Core API" style="image;points=[];aspect=fixed;html=1;align=center;shadow=0;dashed=0;image=img/lib/allied_telesis/computer_and_terminals/Personal_Computer_with_Server.svg;" vertex="1" parent="1">
          <mxGeometry x="453" y="148.8" width="62.400000000000006" height="62.400000000000006" as="geometry" />
        </mxCell>
        <mxCell id="mAHwyWfsaXUX9tezS1Q_-30" value="" style="verticalLabelPosition=bottom;verticalAlign=top;html=1;shape=mxgraph.basic.frame;dx=10;whiteSpace=wrap;" vertex="1" parent="1">
          <mxGeometry x="424" y="270" width="100" height="60" as="geometry" />
        </mxCell>
        <mxCell id="mAHwyWfsaXUX9tezS1Q_-31" value="ViaCEP API" style="text;html=1;align=center;verticalAlign=middle;resizable=0;points=[];autosize=1;strokeColor=none;fillColor=none;" vertex="1" parent="1">
          <mxGeometry x="429" y="285" width="90" height="30" as="geometry" />
        </mxCell>
        <mxCell id="mAHwyWfsaXUX9tezS1Q_-32" value="" style="verticalLabelPosition=bottom;verticalAlign=top;html=1;shape=mxgraph.basic.frame;dx=10;whiteSpace=wrap;" vertex="1" parent="1">
          <mxGeometry x="544" y="270" width="100" height="60" as="geometry" />
        </mxCell>
        <mxCell id="mAHwyWfsaXUX9tezS1Q_-33" value="Repositório&lt;div&gt;de usuários&lt;/div&gt;" style="text;html=1;align=center;verticalAlign=middle;resizable=0;points=[];autosize=1;strokeColor=none;fillColor=none;" vertex="1" parent="1">
          <mxGeometry x="549" y="280" width="90" height="40" as="geometry" />
        </mxCell>
        <mxCell id="mAHwyWfsaXUX9tezS1Q_-34" style="edgeStyle=orthogonalEdgeStyle;rounded=0;orthogonalLoop=1;jettySize=auto;html=1;entryX=0.608;entryY=0.059;entryDx=0;entryDy=0;entryPerimeter=0;" edge="1" parent="1" source="mAHwyWfsaXUX9tezS1Q_-29" target="mAHwyWfsaXUX9tezS1Q_-30">
          <mxGeometry relative="1" as="geometry" />
        </mxCell>
        <mxCell id="mAHwyWfsaXUX9tezS1Q_-35" style="edgeStyle=orthogonalEdgeStyle;rounded=0;orthogonalLoop=1;jettySize=auto;html=1;entryX=0.5;entryY=0;entryDx=0;entryDy=0;entryPerimeter=0;" edge="1" parent="1" source="mAHwyWfsaXUX9tezS1Q_-29" target="mAHwyWfsaXUX9tezS1Q_-32">
          <mxGeometry relative="1" as="geometry" />
        </mxCell>
        <mxCell id="mAHwyWfsaXUX9tezS1Q_-53" style="edgeStyle=orthogonalEdgeStyle;rounded=0;orthogonalLoop=1;jettySize=auto;html=1;entryX=0;entryY=0;entryDx=0;entryDy=0;" edge="1" parent="1" source="mAHwyWfsaXUX9tezS1Q_-48" target="mAHwyWfsaXUX9tezS1Q_-51">
          <mxGeometry relative="1" as="geometry" />
        </mxCell>
        <mxCell id="mAHwyWfsaXUX9tezS1Q_-54" style="edgeStyle=orthogonalEdgeStyle;rounded=0;orthogonalLoop=1;jettySize=auto;html=1;entryX=0;entryY=0.5;entryDx=0;entryDy=0;" edge="1" parent="1" source="mAHwyWfsaXUX9tezS1Q_-48" target="mAHwyWfsaXUX9tezS1Q_-52">
          <mxGeometry relative="1" as="geometry" />
        </mxCell>
        <mxCell id="mAHwyWfsaXUX9tezS1Q_-48" value="UsuarioServico" style="image;aspect=fixed;html=1;points=[];align=center;fontSize=12;image=img/lib/azure2/identity/User_Settings.svg;" vertex="1" parent="1">
          <mxGeometry x="159.5" y="490" width="68" height="56.92" as="geometry" />
        </mxCell>
        <mxCell id="mAHwyWfsaXUX9tezS1Q_-51" value="" style="image;aspect=fixed;perimeter=ellipsePerimeter;html=1;align=center;shadow=0;dashed=0;spacingTop=3;image=img/lib/active_directory/interface.svg;labelPosition=center;verticalLabelPosition=bottom;verticalAlign=top;" vertex="1" parent="1">
          <mxGeometry x="108" y="573" width="50" height="23.5" as="geometry" />
        </mxCell>
        <mxCell id="mAHwyWfsaXUX9tezS1Q_-52" value="" style="image;aspect=fixed;perimeter=ellipsePerimeter;html=1;align=center;shadow=0;dashed=0;spacingTop=3;image=img/lib/active_directory/interface.svg;" vertex="1" parent="1">
          <mxGeometry x="108" y="630" width="50" height="23.5" as="geometry" />
        </mxCell>
        <mxCell id="mAHwyWfsaXUX9tezS1Q_-55" value="" style="verticalLabelPosition=bottom;verticalAlign=top;html=1;shape=mxgraph.basic.frame;dx=10;whiteSpace=wrap;" vertex="1" parent="1">
          <mxGeometry x="211" y="568" width="100" height="60" as="geometry" />
        </mxCell>
        <mxCell id="mAHwyWfsaXUX9tezS1Q_-56" value="" style="verticalLabelPosition=bottom;verticalAlign=top;html=1;shape=mxgraph.basic.frame;dx=10;whiteSpace=wrap;" vertex="1" parent="1">
          <mxGeometry x="211" y="630" width="100" height="60" as="geometry" />
        </mxCell>
        <mxCell id="mAHwyWfsaXUX9tezS1Q_-57" value="&lt;font style=&quot;font-size: 10px;&quot;&gt;ViaCEPServico&lt;/font&gt;" style="text;html=1;align=center;verticalAlign=middle;resizable=0;points=[];autosize=1;strokeColor=none;fillColor=none;" vertex="1" parent="1">
          <mxGeometry x="214.59" y="583" width="90" height="30" as="geometry" />
        </mxCell>
        <mxCell id="mAHwyWfsaXUX9tezS1Q_-58" value="&lt;font style=&quot;font-size: 7px;&quot;&gt;UsuarioRepositorioFake&lt;/font&gt;" style="text;html=1;align=center;verticalAlign=middle;resizable=0;points=[];autosize=1;strokeColor=none;fillColor=none;" vertex="1" parent="1">
          <mxGeometry x="209.59" y="645" width="100" height="30" as="geometry" />
        </mxCell>
        <mxCell id="mAHwyWfsaXUX9tezS1Q_-59" value="&lt;font style=&quot;font-size: 10px;&quot;&gt;IViaCEPServico&lt;/font&gt;" style="text;html=1;align=center;verticalAlign=middle;resizable=0;points=[];autosize=1;strokeColor=none;fillColor=none;" vertex="1" parent="1">
          <mxGeometry x="93" y="587.5" width="90" height="30" as="geometry" />
        </mxCell>
        <mxCell id="mAHwyWfsaXUX9tezS1Q_-61" style="edgeStyle=orthogonalEdgeStyle;rounded=0;orthogonalLoop=1;jettySize=auto;html=1;" edge="1" parent="1" source="mAHwyWfsaXUX9tezS1Q_-60" target="mAHwyWfsaXUX9tezS1Q_-58">
          <mxGeometry relative="1" as="geometry" />
        </mxCell>
        <mxCell id="mAHwyWfsaXUX9tezS1Q_-60" value="&lt;font style=&quot;font-size: 7px;&quot;&gt;UsuarioRepositorioFake&lt;/font&gt;" style="text;html=1;align=center;verticalAlign=middle;resizable=0;points=[];autosize=1;strokeColor=none;fillColor=none;" vertex="1" parent="1">
          <mxGeometry x="83" y="645" width="100" height="30" as="geometry" />
        </mxCell>
        <mxCell id="mAHwyWfsaXUX9tezS1Q_-62" style="edgeStyle=orthogonalEdgeStyle;rounded=0;orthogonalLoop=1;jettySize=auto;html=1;entryX=0.037;entryY=0.672;entryDx=0;entryDy=0;entryPerimeter=0;" edge="1" parent="1" source="mAHwyWfsaXUX9tezS1Q_-59" target="mAHwyWfsaXUX9tezS1Q_-57">
          <mxGeometry relative="1" as="geometry" />
        </mxCell>
        <mxCell id="mAHwyWfsaXUX9tezS1Q_-63" style="edgeStyle=orthogonalEdgeStyle;rounded=0;orthogonalLoop=1;jettySize=auto;html=1;exitX=0.5;exitY=1;exitDx=0;exitDy=0;entryX=0.494;entryY=0.038;entryDx=0;entryDy=0;entryPerimeter=0;" edge="1" parent="1" source="mAHwyWfsaXUX9tezS1Q_-65" target="mAHwyWfsaXUX9tezS1Q_-68">
          <mxGeometry relative="1" as="geometry" />
        </mxCell>
        <mxCell id="mAHwyWfsaXUX9tezS1Q_-64" value="Nível 4 - Diagrana de Código" style="rounded=0;whiteSpace=wrap;html=1;fillColor=none;labelPosition=center;verticalLabelPosition=top;align=center;verticalAlign=bottom;" vertex="1" parent="1">
          <mxGeometry x="414" y="370" width="247" height="320" as="geometry" />
        </mxCell>
        <mxCell id="mAHwyWfsaXUX9tezS1Q_-65" value="UsuarioController" style="image;aspect=fixed;perimeter=ellipsePerimeter;html=1;align=center;shadow=0;dashed=0;spacingTop=3;image=img/lib/active_directory/domain_controller.svg;" vertex="1" parent="1">
          <mxGeometry x="449" y="380" width="35" height="50" as="geometry" />
        </mxCell>
        <mxCell id="mAHwyWfsaXUX9tezS1Q_-82" style="edgeStyle=orthogonalEdgeStyle;rounded=0;orthogonalLoop=1;jettySize=auto;html=1;entryX=0;entryY=0.5;entryDx=0;entryDy=0;" edge="1" parent="1" source="mAHwyWfsaXUX9tezS1Q_-68" target="mAHwyWfsaXUX9tezS1Q_-79">
          <mxGeometry relative="1" as="geometry">
            <Array as="points">
              <mxPoint x="440" y="547" />
              <mxPoint x="433" y="547" />
              <mxPoint x="433" y="574" />
            </Array>
          </mxGeometry>
        </mxCell>
        <mxCell id="mAHwyWfsaXUX9tezS1Q_-83" style="edgeStyle=orthogonalEdgeStyle;rounded=0;orthogonalLoop=1;jettySize=auto;html=1;entryX=0;entryY=0.5;entryDx=0;entryDy=0;" edge="1" parent="1" source="mAHwyWfsaXUX9tezS1Q_-68" target="mAHwyWfsaXUX9tezS1Q_-80">
          <mxGeometry relative="1" as="geometry">
            <Array as="points">
              <mxPoint x="440" y="540" />
              <mxPoint x="433" y="540" />
              <mxPoint x="433" y="609" />
            </Array>
          </mxGeometry>
        </mxCell>
        <mxCell id="mAHwyWfsaXUX9tezS1Q_-84" style="edgeStyle=orthogonalEdgeStyle;rounded=0;orthogonalLoop=1;jettySize=auto;html=1;entryX=0;entryY=0.75;entryDx=0;entryDy=0;" edge="1" parent="1" source="mAHwyWfsaXUX9tezS1Q_-68" target="mAHwyWfsaXUX9tezS1Q_-81">
          <mxGeometry relative="1" as="geometry">
            <Array as="points">
              <mxPoint x="440" y="540" />
              <mxPoint x="433" y="540" />
              <mxPoint x="433" y="641" />
            </Array>
          </mxGeometry>
        </mxCell>
        <mxCell id="mAHwyWfsaXUX9tezS1Q_-68" value="&lt;font style=&quot;font-size: 7px;&quot;&gt;UsuarioServico.CriarUsuario()&lt;/font&gt;" style="image;aspect=fixed;html=1;points=[];align=center;fontSize=12;image=img/lib/azure2/identity/User_Settings.svg;" vertex="1" parent="1">
          <mxGeometry x="434" y="470" width="68" height="56.92" as="geometry" />
        </mxCell>
        <UserObject label="ViaCepServico.BuscarEndereco()" placeholders="1" name="Variable" id="mAHwyWfsaXUX9tezS1Q_-79">
          <mxCell style="text;html=1;strokeColor=none;fillColor=none;align=center;verticalAlign=middle;whiteSpace=wrap;overflow=hidden;" vertex="1" parent="1">
            <mxGeometry x="453" y="566" width="193" height="17" as="geometry" />
          </mxCell>
        </UserObject>
        <UserObject label="Usuario.Criar()" placeholders="1" name="Variable" id="mAHwyWfsaXUX9tezS1Q_-80">
          <mxCell style="text;html=1;strokeColor=none;fillColor=none;align=center;verticalAlign=middle;whiteSpace=wrap;overflow=hidden;" vertex="1" parent="1">
            <mxGeometry x="453" y="600.5" width="97" height="17" as="geometry" />
          </mxCell>
        </UserObject>
        <UserObject label="UsuarioRepositorio.Adicionar()" placeholders="1" name="Variable" id="mAHwyWfsaXUX9tezS1Q_-81">
          <mxCell style="text;html=1;strokeColor=none;fillColor=none;align=center;verticalAlign=middle;whiteSpace=wrap;overflow=hidden;" vertex="1" parent="1">
            <mxGeometry x="453" y="628" width="181" height="17" as="geometry" />
          </mxCell>
        </UserObject>
      </root>
    </mxGraphModel>
  </diagram>
</mxfile>
